<svg xmlns="http://www.w3.org/2000/svg" viewBox="0 0 2460.21 466.22"><defs><style>.cls-1{fill:none;}.cls-2{fill:#d8d8d8;}.cls-3,.cls-5,.cls-6{fill:#fff;}.cls-4{fill:#bfbfbf;}.cls-5,.cls-6{font-size:345.54px;}.cls-5{font-family:Lato-Light, Lato;font-weight:300;}.cls-6{font-family:Lato-Black, Lato;font-weight:800;}</style></defs><title>mianlogo</title><g id="Layer_2" data-name="Layer 2"><g id="Layer_1-2" data-name="Layer 1"><path class="cls-1" d="M221.35,136.93h.6c0-4.27-.13-8.68-.3-13.19C221.61,128.25,221.5,132.66,221.35,136.93Z"/><path class="cls-1" d="M97.22,136.93H203.93c-.46-47.5-7.2-113.16-49.29-120.2C98.45,23.72,94.48,88.39,97.22,136.93Z"/><path class="cls-1" d="M85.64,61.79c-7.5,23-7.8,51.06-6.44,75.14H82C80.11,113.63,79.34,86.07,85.64,61.79Z"/><path class="cls-2" d="M82,136.93H97.22c-2.74-48.54,1.23-113.21,57.42-120.2A46,46,0,0,0,147,16.1c-35.1,0-52.85,19.61-61.34,45.69C79.34,86.07,80.11,113.63,82,136.93Z"/><path class="cls-2" d="M221.65,123.74c.17,4.51.26,8.92.3,13.19h17.42C241.31,81.59,236.61,3.05,165,0c-3.32.14-6.5.4-9.57.75C213.84,8.74,222.14,72.3,221.65,123.74Z"/><path class="cls-3" d="M0,418.24,36.2,143.67H12.07A12.08,12.08,0,0,0,0,155.75Z"/><path class="cls-3" d="M280.78,148.36,4,466.22H300.36a12.27,12.27,0,0,0,12.21-13.55Z"/><path class="cls-4" d="M220.32,158.51A18.12,18.12,0,1,1,203.84,155c.07-3.57.11-7.35.12-11.29H79.63c.28,4.05.6,8,.92,11.65a18.1,18.1,0,1,1-14.75,1.21c-.4-4-.84-8.35-1.25-12.86H43L1.43,458.94,275.92,143.67H221.08C220.85,148.91,220.57,153.89,220.32,158.51Z"/><path class="cls-3" d="M64.55,143.67c.41,4.51.85,8.82,1.25,12.86.92,9.19,1.7,17,1.76,22.73l.39.4c5.2,5.2,14.35,1.63,14.25-5.72,0-.21,0-.43,0-.65-.44-5.16-1-11.25-1.62-18-.32-3.7-.64-7.6-.92-11.65-.15-2.2-.3-4.45-.43-6.74-1.36-24.08-1.06-52.13,6.44-75.14C94.13,35.71,111.88,16.1,147,16.1a46,46,0,0,1,7.66.63c42.09,7,48.83,72.7,49.29,120.2q0,3.44,0,6.74c0,3.94-.05,7.72-.12,11.29-.1,6.25-.26,11.86-.38,16.53a8.08,8.08,0,0,0,16.16.54c.16-4,.42-8.57.7-13.52.25-4.62.53-9.6.76-14.84q.15-3.3.27-6.74c.15-4.27.26-8.68.3-13.19.49-51.44-7.81-115-66.22-123C152.72.38,149.91.12,147,0,61.23,3.55,59.54,82.08,64,136.93Q64.26,140.37,64.55,143.67Z"/><text class="cls-5" transform="translate(334.45 400.8)">SHOP</text><text class="cls-6" transform="translate(1257.07 400.8)">SMART</text></g></g></svg>